<?xml version="1.0" encoding="UTF-8"?>
<svg id="_Слой_1" data-name="Слой 1" xmlns="http://www.w3.org/2000/svg" viewBox="0 0 662.42 662.42">
  <defs>
    <style>
      .cls-1 {
        fill: #fff;
        stroke-width: 0px;
      }
    </style>
  </defs>
  <path class="cls-1" d="M225.74,355.03c1.36-4.09,5.78-6.53,9.95-7,4.37-.46,8.55.7,12.38,2.01,7.64,2.86,14.86,5.46,22.68,1.61-2.98,2.8-7.31,4.32-11.6,4.14-11.24-.25-24.17-11.54-33.4-.76h0Z"/>
  <path class="cls-1" d="M292,355.15c1.36-4.09,5.78-6.53,9.95-7,4.37-.46,8.55.7,12.38,2.01,7.64,2.86,14.86,5.46,22.68,1.61-2.98,2.8-7.31,4.32-11.6,4.14-11.24-.25-24.17-11.54-33.4-.76h0Z"/>
  <path class="cls-1" d="M137.79,356.71v2.06s54.07.09,54.07.09l2.37-.97v-1.09s-56.44-.09-56.44-.09ZM184.72,356.79c-.07.69-.14,1.37-.24,2.06-1.1,8.85-3.62,16.56-7.49,23.13-4.18,7.07-9.56,12.55-16.12,16.47-6.56,3.89-13.85,5.85-21.9,5.83-8.76-.01-16.61-2.37-23.54-7.02-6.9-4.67-12.31-11.1-16.2-19.29-3.92-8.2-5.84-17.64-5.82-28.31.02-11.01,2.02-20.56,5.99-28.7,3.99-8.13,9.42-14.44,16.36-18.93,6.94-4.46,14.73-6.7,23.39-6.68,7.1.01,13.61,1.58,19.59,4.69,5.96,3.13,11.06,7.57,15.27,13.28,4.23,5.71,7.29,12.37,9.17,19.99l10.46.02c-2.09-8.03-5.75-15.04-10.97-21.03-5.24-5.97-11.58-10.65-19-13.97-7.45-3.35-15.61-5.02-24.51-5.03-8.14-.01-15.65,1.35-22.51,4.08-6.87,2.73-12.89,6.63-18.01,11.71-5.14,5.06-9.15,11.01-12.01,17.9-2.87,6.86-4.31,14.41-4.32,22.67-.01,8.24,1.39,15.84,4.25,22.75,2.83,6.94,6.82,12.93,11.95,18.03,5.1,5.07,11.11,8.99,17.97,11.74,6.86,2.78,14.36,4.17,22.5,4.18,9.94.02,18.96-2.07,27.06-6.23,8.08-4.15,14.71-9.96,19.84-17.41,5.15-7.45,8.31-16.08,9.49-25.9l-10.63-.02Z"/>
  <path class="cls-1" d="M224.43,402.84v2.06s41.84.07,41.84.07v-2.06s-41.84-.07-41.84-.07ZM224.52,348.93v2.06s1.58,0,1.58,0v-2.06s-1.58,0-1.58,0ZM224.61,295.01v2.06s41.84.07,41.84.07v-2.06s-41.84-.07-41.84-.07ZM215.71,295l-.18,109.88,10.48.02.18-109.88-10.48-.02Z"/>
  <path class="cls-1" d="M291.03,402.95v2.06s41.84.07,41.84.07v-2.06s-41.84-.07-41.84-.07ZM291.11,349.04v2.06s1.58,0,1.58,0v-2.06s-1.58,0-1.58,0ZM291.2,295.13v2.06s41.84.07,41.84.07v-2.06s-41.84-.07-41.84-.07ZM282.31,295.11l-.18,109.88,10.48.02.18-109.88-10.48-.02Z"/>
  <path class="cls-1" d="M403.79,295.31l-25,106.08-.88,3.76h2.22s25.86-109.84,25.86-109.84h-2.2ZM378.78,401.39l-24.32-106.16-10.63-.02,25.02,109.93,10.79.02-.87-3.76Z"/>
  <g>
    <path class="cls-1" d="M424.53,403.17v2.06s69.93.12,69.93.12v-2.06s-69.93-.12-69.93-.12ZM502.78,351.83s.05-.09.07-.12c.05-.09.09-.19.14-.28.38-.78.83-1.56,1.28-2.29.38-.59.76-1.16,1.16-1.73.26-1.73.41-3.48.46-5.28-.62.73-1.26,1.47-1.97,2.1-.43.4-.88.78-1.35,1.13-.17.12-.36.26-.52.38-.38-.43-.66-.62-.66-.78,0-.12.02-.26.05-.38.02-.36.05-.69.1-1.04,0-.12.02-.24.02-.33.12-1.21.22-2.39.34-3.6.48-5.32.96-10.65,1.52-15.97-.78-2.32-1.77-4.55-2.97-6.68-.15,1.96-.34,3.95-.58,5.96-2.22-1.61-1.75-3.6-1.86-5.45-.12-1.68-.18-3.36-.39-5.04-.64-.92-1.32-1.8-2.08-2.65.05.69.12,1.37.16,2.06.21,2.44.42,4.85.63,7.29.25,3.03.51,6.06.74,9.11.23,2.77.44,5.52.63,8.28.02.47.07.92.12,1.4.07.85.09,1.75-.03,2.65-.05.35-.14.71-.26,1.09-.1.26-.19.5-.33.73-.26.59-.66,1.16-1.19,1.73-.32,5.49-1.34,10.53-3.03,15.09v.02c-.29,2.11-1.12,3.95-2.47,5.56-3.06,5.86-7.16,10.5-12.19,13.87-.62.42-1.26.8-1.9,1.18-4.36,2.53-9.12,3.96-14.28,4.26-.78.07-1.59.09-2.39.09-1.63,0-3.22-.1-4.76-.32-5.18-.69-9.86-2.5-14.1-5.44-5.49-3.8-9.81-9.06-12.97-15.71-3.16-6.66-4.73-14.33-4.72-22.99.01-8.9,1.64-16.66,4.87-23.3,3.23-6.67,7.62-11.84,13.11-15.53,5.5-3.68,11.75-5.52,18.71-5.51,6.98.01,13.2,1.92,18.64,5.73,1.06.74,2.08,1.54,3.05,2.42,1.94,1.68,3.71,3.6,5.29,5.74-.66-2.89-1.34-5.8-2.02-8.69-.43-.28-.88-.55-1.32-.81-1.04-.59-2.1-1.14-3.19-1.64-6.17-2.9-12.99-4.33-20.44-4.34-8.87-.01-16.81,1.94-23.79,5.9-6.96,3.94-12.49,9.35-16.5,16.23-4.04,6.86-6.06,14.78-6.07,23.77-.01,8.97,1.98,16.93,5.99,23.87,3.99,6.94,9.49,12.35,16.44,16.29,4.94,2.78,10.36,4.58,16.27,5.38,2.08.31,4.24.48,6.44.51.35.02.71.02,1.06.03,8.78.01,16.66-1.94,23.65-5.83.4-.24.81-.47,1.21-.73,2.04-1.18,3.93-2.53,5.69-4.04-.62,0-1.23.05-1.85.14-.28.05-.66-.55-1.32-1.16,2.04-.49,4-1.03,5.92-1.5.62-.57,1.14-1.16,1.68-1.77l.02-.02s-.07.02-.09.02c-.21.05-.43.07-.64.09.05-.17.12-.33.19-.47v-.02c.1-.31.21-.62.33-.9.02-.09.07-.17.09-.21.21-.52.45-1.04.69-1.54.78-1.63,1.73-3.19,2.87-4.61.33-.4.66-.8,1.02-1.16.24-.28.52-.57.81-.8.62-.64,1.3-1.2,2.01-1.75.93-2.08,1.69-4.23,2.26-6.46-.12.17-.28.33-.45.47-.07.09-.17.17-.26.19-.09.07-.19.12-.28.12h-.02c-.21.02-.45,0-.61-.12-.02-.02-.07-.05-.12-.07-.12-.09-.26-.21-.43-.38.07-.14.12-.28.21-.43.12-.35.29-.69.45-1.02Z"/>
    <path class="cls-1" d="M626.63,341.55c-.8-.33-1.61-.5-2.44-.6-.76-.07-1.51-.12-2.3-.17-1.66-.14-3.31-.36-4.94-.62-3.81-.65-7.52-1.67-11.14-2.93-3.64-1.26-7.31-2.54-11.02-3.5-7-1.81-14.03-3.69-21.13-5.01-6.91-1.27-13.91-1.56-20.8.46-9.05,2.66-18.11,5.22-27.14,7.93-1.59.47-3.17,1.25-4.5,2.24-5.74,4.37-12.2,7.86-16.83,13.58-.02.05-.07.07-.09.12-.12.17-.28.33-.45.47-.07.07-.17.14-.26.19-.09.05-.19.09-.28.12h-.02c-.21.02-.45,0-.61-.12-.05,0-.09-.02-.12-.07-.14-.09-.24-.24-.26-.43-.02-.12,0-.26.05-.38.07-.35.29-.71.45-1.02.02-.05.05-.09.07-.12.05-.09.09-.19.14-.28.19-.43.43-.83.64-1.23.21-.35.43-.71.64-1.06.38-.59.76-1.16,1.16-1.73,1.99-2.84,4.41-5.39,7.04-7.8,1.3-1.2,2.73-2.29,4.03-3.52,1.3-1.2,2.44-2.58,3.63-3.92.55-.64,1.12-1.3,1.73-1.87,1.26-1.18,2.73-1.82,4.17-2.64,1.61-.92,3.17-1.91,4.86-2.67,4.14-1.84,8.36-3.54,12.55-5.3,4.74-1.98,8.65-5.17,12.23-8.71.36-.35.52-.8.64-1.25.1-.38.38-1.14.19-1.51-.45-.07-.85.47-1.14.71-.4.35-.78.69-1.16,1.02-.81.66-1.61,1.32-2.46,1.91-2.94,2.08-5.83,4.27-9,5.88-5.14,2.57-10.54,4.67-15.77,7.05-2.27,1.04-4.38,2.36-6.04,4.25-1.07,1.23-2.21,2.53-3.48,3.54-1.14.92-2.46,1.7-3.67,2.53-.31-.62-.73-2.27-1.63-1.94-.59.21-.88.97-1.19,1.44-.55.85-1.07,1.73-1.61,2.58-1.07,1.7-2.16,3.4-3.44,4.96-.62.73-1.26,1.47-1.97,2.1-.33.31-.83.9-1.35,1.13-.28.14-.59.14-.85-.07-.21-.17-.28-.43-.28-.71-.05-.33.02-.71.1-1.04,0-.12.02-.24.02-.33.12-1.21.22-2.39.34-3.6.51-5.32,1.01-10.65,1.52-15.97.12-1.25.24-2.53.39-3.79,1.49-13.37-.48-25.87-7.65-37.55-4.51-7.37-8.54-15.14-8.46-24.2,0-.24-.14-.47-.24-.69-.42-1.28-2.81-1.85-3.6-.76-.83,1.13-1.64,2.41-2.07,3.74-.59,1.82-.65,3.83-1.31,5.63-3.42,9.15-3.18,18.53-1.13,27.81.33,1.44.66,2.89.99,4.33.4,1.8.8,3.6,1.24,5.4,3.15,13.71,6.53,27.37,9.68,41.08.87,3.69,1.22,7.53,1.69,11.32.14,1.16.14,2.2.02,3.27v.02c-.29,2.11-1.12,3.95-2.47,5.56-.85,1.06-1.92,2.01-3.2,2.86-.99.66-1.92,1.46-2.96,2.05-5.42,3.09-10.52,6.85-16.91,7.99-4.36.77-7.86,3.58-11.63,5.73-.26.14-.52.31-.81.45-.9.5-1.82.94-2.75,1.37-8.95,4.03-18.89,4.91-28.18,8.05,1.65.93,3.33,1.73,5.08,2.42,1.59-.38,3.2-.73,4.81-1.06,8.71-1.74,16.88-4.99,24.72-8.9.14-.07.28-.14.43-.21,1-.5,2.01-.99,3.03-1.44,4.62-2.05,9.35-3.51,14.28-4.26,1.3-.21,2.63-.37,3.98-.47,1.42-.12,2.82-.16,4.21-.16,5.61,0,11.15.8,16.71,1.42,3.34.38,6.72.84,10.03.7,5.07-.2,10.06-.98,15.1-1.37,3.88-.3,7.65-.84,11.32-2.28,1.99-.78,4.19-1.11,6.32-1.53,3.05-.61,6.18-.96,9.21-1.74,5.59-1.46,11.08-3.34,16.69-4.63,6.77-1.53,12.6-4.69,17.86-9.06,1.49-1.23,3.03-2.55,4.78-3.26,6.92-2.78,13.69-6.04,21.15-7.25,2.39-.37,4.76-.87,7.08-1.57.71-.21,1.4-.49,2.04-.85,1.18-.64,2.23-1.51,3.01-2.6.45-.59.81-1.23,1.12-1.92.12-.26.45-.78.43-1.06-.02-.33-.57-.57-.83-.69ZM495.74,344.15c-.43-.14-.57-1.35-.71-1.71-.21-.69-.45-1.35-.66-2.01-.4-1.23-.78-2.49-1.08-3.76-2.16-9.12-4.28-18.25-6.42-27.37-.66-2.89-1.34-5.8-2.02-8.69-.71-3.03-1.41-6.04-2.11-9.07-.75-3.29-.87-6.56-.34-10.65,2.34,3.67,4.01,7.67,5.64,11.7,1.84,4.5,3.94,8.91,5.59,13.5.68,1.89,1.63,3.79,2.07,5.75.07.19.12.38.14.57.4,2.23.3,4.47.49,6.72.25,3.03.51,6.06.74,9.11.23,2.75.44,5.52.63,8.28.02.47.07.92.12,1.4.03.43.06.87.06,1.32,0,.44-.03.89-.09,1.34-.07.38-.14.73-.26,1.09-.1.26-.19.5-.33.73-.02.09-.07.19-.12.28-.17.28-.64,1.25-1.07,1.44-.09.05-.19.05-.26.02ZM606.69,348.05c-.71.61-1.63.99-2.53,1.32-2.25.82-4.57,1.53-6.82,2.36-4.5,1.67-8.79,3.54-12.7,6.58-6.9,5.38-14.78,8.85-23.54,10.37-7.84,1.36-15.84,2.51-23.27,5.12-9.16,3.23-18.65,1.72-27.86,3.29-2.98.52-6.22-.44-9.32-.77-3.45-.36-6.86-1.27-10.34-1.13-.45,0-.9.02-1.35.07-.32.04-.71.1-.92-.21-.1-.15-.16-.32-.15-.5.03-.37.34-.64.68-.74.5-.14,1-.26,1.5-.39,1-.26,1.99-.51,2.99-.76,1.71-.42,3.36-.8,5.07-1.06,7.95-1.22,15.25-4.26,22.54-7.44,4.4-1.91,8.83-3.8,13.31-5.56,1.56-.61,3.24-.87,4.88-1.25,6.56-1.57,13.19-2.89,19.63-4.8,1.05-.31,2.01-.87,2.9-1.48.95-.65,1.84-1.37,2.77-2.05.23-.17.45-.34.71-.46.27-.13.59-.17.88-.24.63-.15,1.27-.3,1.9-.45,1.27-.3,2.54-.6,3.81-.9,1.27-.3,2.54-.6,3.81-.9.48-.11.96-.23,1.45-.34,1.01-.24,2.02-.48,3.03-.72s1.94-.49,2.94-.48c.82,0,1.46.45,2.25.52.7.06,1.39-.05,2.09.08s1.29.23,1.97.17c1.39-.12,2.73-.61,4.13-.6.92.01,1.64.42,2.5.68s1.8.4,2.72.42c1.88.05,3.73-.31,5.56-.68.15-.03.3-.06.44-.09.76-.15,1.56-.23,2.31.01.71.23,1.74.39,2.04,1.17.08.23.14.6.02.82-.09.18-.35.28-.56.37-.48.2-1.04.28-1.44.63ZM605.52,344.44c-.34.09-.71.09-1.05.09-1.85,0-3.69-.38-5.54-.42-1.09-.03-2.16.05-3.24.13-1.03.08-2.11-.13-3.13-.27-1.18-.17-2.28.17-3.44.17-1.22,0-2.44-.1-3.63-.37-1.38-.32-2.8-.61-4.23-.48-1.25.11-2.52.51-3.75.79-2.58.59-5.15,1.22-7.71,1.88-1.73.45-3.3.81-4.84,1.72-1.38.82-2.73,1.73-4.28,2.2-7.69,2.3-15.66,3.64-23.16,6.57-8.27,3.23-16.77,5.79-25.05,9.05-1.92.75-3.84,1.51-5.78,2.22-2.04.75-4.12,1.46-6.23,2.03-1.07.28-2.13.54-3.2.75-.54.09-1.07.19-1.61.28-.24.02-.59.14-.92.14h-.07c-.14,0-.28-.05-.35-.14-.07-.07-.09-.14-.09-.26,0-.28.19-.64.33-.9.02-.09.07-.17.09-.21.21-.52.45-1.04.69-1.54.78-1.63,1.73-3.19,2.87-4.61.33-.4.66-.8,1.02-1.16.26-.28.52-.54.81-.8.64-.61,1.3-1.18,2.01-1.75.64-.52,1.33-.97,2.04-1.39,1.4-.85,2.47-2.27,3.56-3.54,4.32-4.99,9.81-8.62,15.17-12.16,4.1-2.71,9.28-3.82,14.04-5.44,3.2-1.08,6.56-1.69,9.76-2.73,11.15-3.6,22.28-3.21,33.44-.18,3.69,1,7.43,1.86,11.14,2.83,5.82,1.52,11.64,3.05,17.41,4.67.56.16,2.6.71,2.09,1.67-.23.42-.92.28-1.29.25-.63-.06-1.28-.12-1.91-.01-.59.1-.93.36-1.38.7-.17.13-.37.21-.58.27ZM612.02,343.82s.03-.07.06-.09c.66-.66,2.61-.12,3.43.01.45.08.91.16,1.36.23.35.05.86-.06.94.41.16.84-1.79,1.02-2.32.99-.59-.03-1.15-.23-1.69-.46-.31-.13-1.87-.66-1.8-1.09Z"/>
  </g>
  <path class="cls-1" d="M35.14,335.98c2.88,2.53,5.14,5.61,7.6,8.51.15.18.4.3.5.5,2.39,4.48,6.25,7.77,9.51,11.52,4.31,4.96,9.17,9.33,15.17,12.28,2.13,1.05,4.16,2.34,6.1,3.7.27.19.52.44.75.7,2.6.3,4.93,1.22,7.04,2.56.38.05.68.09.94.22.16.07.31.16.47.24.25.1.47.22.68.36.87.48,1.73.99,2.65,1.38,2.51,1.06,4.3,2.89,5.87,5.03.42.57.82,1.15,1.31,1.66,1.22,1.29,2.45,2.57,3.68,3.85-.37-1.16-.68-2.35-.92-3.57-2.96-3.7-5.26-7.87-7.6-12.01-1.05-1.86-1.9-3.84-2.91-5.72-.56-1.04-1.27-2.01-1.94-2.99-1.13-1.67-2.24-3.34-3.29-5.07-2.28-3.75-4.97-7.13-8.78-9.67-5.86-3.9-12.41-5.86-19.02-7.8-4.93-1.44-9.66-3.3-14.14-5.84-.91-.52-1.92-.88-2.92-1.22-.23-.08-.73.18-.85.41-.13.24-.09.8.1.96ZM56.58,344.77c5.19,1.7,10.47,3.13,14.94,6.6,2.87,2.23,5.44,4.59,7.29,7.73,1.08,1.84,2.34,3.59,3.48,5.39.62.99,1.18,2.02,1.76,3.03-.2.12-.41.24-.61.36-2.37-2.15-4.77-4.27-7.12-6.45-2.11-1.96-4.38-3.65-6.98-4.93-3.1-1.53-6.03-3.34-8.59-5.73-3.05-2.85-6.29-5.43-10.45-6.55-.43-.12-1.12-.3-1.01-1.14,2.58.05,4.94.91,7.28,1.68ZM45.39,342.15c1.75,1.01,3.39,2.29,5.23,3.06,4.91,2.06,8.83,5.58,13.02,8.66,2.4,1.77,4.77,3.47,7.4,4.89,1.76.95,3.49,2,4.91,3.52,2.03,2.16,4.08,4.36,6.41,6.16,2.46,1.91,4.07,4.25,5.36,7.62-1.21-.37-1.99-.43-2.52-.82-1.57-1.15-3.34-1.75-5.15-2.37-2.13-.73-4.3-1.51-6.21-2.67-2.14-1.31-4.3-2.53-6.62-3.49-.65-.27-1.26-.7-1.81-1.14-2.68-2.17-5.37-4.33-7.99-6.57-2.45-2.09-4.41-4.64-6.58-6.99-2.75-2.98-5.08-6.26-7.43-9.53-.16-.22-.04-.63-.07-1.25.82.36,1.46.58,2.04.91Z"/>
  <path class="cls-1" d="M84.96,371.02c.19.04.39.08.58.12.3-1.42.57-2.84.78-4.26-.79-1.47-1.06-2.95-1.38-4.36-1.37-6.08-3.15-12.1-3.64-18.35-.4-5.05-1.34-10.06-1.04-15.16.15-2.64-.2-5.21-.9-7.75-.35-1.25-.53-2.56-.76-3.84-1.02-5.71-2.31-11.33-5.02-16.54-.61-1.17-.92-2.46-1.38-3.69-.35-.95-.84-1.85-1.29-2.75-.09-.18-.18-.37-.3-.54-.15-.24-.37-.47-.65-.55s-.5.05-.41.37c.2.7.5,1.33.79,1.99.27.61.45,1.28.71,1.9.54,1.31,1.18,2.57,1.85,3.82.48.88.92,1.81,1.22,2.77.8,2.64,1.63,5.28,2.23,7.97.94,4.24,1.71,8.52,2.52,12.79.13.7.16,1.43.13,2.14-.22,6.26.72,12.44,1.17,18.66.03.41-.13.83-.21,1.26-1.44-.08-1.51-1.29-1.81-2.13-1.71-4.76-3.38-9.55-4.97-14.35-.59-1.78-.96-3.63-1.39-5.46-1.01-4.23-2.52-8.32-3.1-12.68-.71-5.37-2.84-10.32-5.13-15.2-2.17-4.61-5.02-8.8-7.95-12.94-.75-1.06-1.39-2.21-2-3.36-.59-1.11-1.5-2.1-1.61-3.69,2.47.73,4.26,2.11,6.04,3.57.39.32.74.68,1.12,1.01.49.42.86.97,1.33,1.41.7.64,1.25,1.41,1.85,2.14.61.74,1.28,1.44,1.91,2.16s1.15,1.57,1.71,2.36c.09.12.2.25.34.26.07,0,.14-.03.2-.06.13-.06.27-.14.33-.27.06-.16-.02-.33-.11-.48-.38-.66-.79-1.3-1.25-1.91-.45-.6-.85-1.25-1.35-1.82-.2-.23-.45-.42-.65-.65-.18-.2-.31-.44-.49-.65-.23-.26-.38-.55-.57-.83-.41-.59-.93-1.08-1.4-1.62-.3-.34-.61-.68-.93-1-.63-.65-1.29-1.26-1.98-1.84-1.38-1.16-2.9-2.16-4.51-2.96-.6-.3-1.2-.56-1.82-.81-1.78-.69-3.32-1.79-4.52-3.33-.17-.22-.92-.27-1.15-.08-.26.21-.43.83-.31,1.16.18.52.61.97.96,1.42,1.78,2.29,3.67,4.51,5.34,6.88,2.59,3.68,5.17,7.39,7.49,11.24,3.39,5.61,6.14,11.54,7.39,18.04.96,5,1.87,9.99,3.68,14.78.71,1.89.73,4.04,1.45,5.92,2.81,7.3,4.87,14.88,8.44,21.91,1.41,2.78,1.8,6.1,2.52,9.2.59,2.53.4,5.2,1.65,7.62.15.3.2.66.22,1.03Z"/>
</svg>